# xmcd
#
# Track frame offsets:
#	150
#	13820
#	24538
#	38730
#	51008
#	63035
#	74600
#	84542
#	96331
#	106836
#
# Disc length: 1625 seconds
#
# Revision: 1
# Processed by: cddbd v1.5.2PL0 Copyright (c) Steve Scherf et al.
# Submitted via: audiograbber 1.83.01
#
DISCID=7c06570a
DTITLE=Bob Norman - First Of All 
DYEAR=1900
DGENRE=Country
TTITLE0=Luther Perkins Picked
TTITLE1=The Best Ything You Ever Left Me
TTITLE2=I´d Rather Always Wonder
TTITLE3=Let´s Put It Back Together
TTITLE4=I´m A Good Man
TTITLE5=What A Shape
TTITLE6=Jeannie
TTITLE7=I Can Fell Love
TTITLE8=Thanks Again
TTITLE9=I Might Fall In Like With You
EXTD=
EXTT0=
EXTT1=
EXTT2=
EXTT3=
EXTT4=
EXTT5=
EXTT6=
EXTT7=
EXTT8=
EXTT9=
PLAYORDER=
